<?xml version="1.0" encoding="UTF-8" standalone="no"?>
<!-- Created with Inkscape (http://www.inkscape.org/) -->

<svg
   width="210mm"
   height="297mm"
   viewBox="0 0 210 297"
   version="1.1"
   id="svg1"
   inkscape:version="1.4.4 (dcaf3e7d9e, 2026-05-05)"
   sodipodi:docname="unknown_album_art.svg"
   xmlns:inkscape="http://www.inkscape.org/namespaces/inkscape"
   xmlns:sodipodi="http://sodipodi.sourceforge.net/DTD/sodipodi-0.dtd"
   xmlns="http://www.w3.org/2000/svg"
   xmlns:svg="http://www.w3.org/2000/svg">
  <sodipodi:namedview
     id="namedview1"
     pagecolor="#ffffff"
     bordercolor="#000000"
     borderopacity="0.25"
     inkscape:showpageshadow="2"
     inkscape:pageopacity="0.0"
     inkscape:pagecheckerboard="true"
     inkscape:deskcolor="#d1d1d1"
     inkscape:document-units="mm"
     inkscape:zoom="0.75098906"
     inkscape:cx="396.81004"
     inkscape:cy="561.25984"
     inkscape:window-width="1920"
     inkscape:window-height="1052"
     inkscape:window-x="0"
     inkscape:window-y="0"
     inkscape:window-maximized="1"
     inkscape:current-layer="layer1" />
  <defs
     id="defs1">
    <inkscape:path-effect
       effect="spiro"
       id="path-effect3"
       is_visible="true"
       lpeversion="1" />
  </defs>
  <g
     inkscape:label="Layer 1"
     inkscape:groupmode="layer"
     id="layer1">
    <rect
       style="fill:#5af751;stroke-width:1.26822"
       id="rect1"
       width="87.021347"
       height="78.918144"
       x="62.359428"
       y="63.064056"
       inkscape:export-filename="unknown_art.png"
       inkscape:export-xdpi="96"
       inkscape:export-ydpi="96" />
    <ellipse
       style="fill:#000000;fill-opacity:1;stroke-width:0.626224"
       id="path2"
       cx="105.69395"
       cy="128.5943"
       rx="7.0462632"
       ry="7.7508893" />
    <path
       style="fill:#000000;fill-opacity:1;stroke-width:1"
       d="m 92.658363,110.62633 c -0.102375,1.13978 0.129882,2.30348 0.633914,3.33087 0.504032,1.02738 1.275732,1.91781 2.202811,2.5887 1.85416,1.34178 4.289932,1.76481 6.542542,1.35979 2.25261,-0.40502 4.32191,-1.58961 5.99247,-3.15406 1.67056,-1.56445 2.96263,-3.49721 4.00548,-5.53455 1.24203,-2.42645 2.15341,-5.04304 2.4662,-7.75089 0.19728,-1.707868 0.15569,-3.433068 0.21842,-5.151148 0.0627,-1.71808 0.23541,-3.455966 0.83852,-5.065932 1.05506,-2.816403 3.33333,-5.013936 4.58007,-7.750889 0.95544,-2.097463 1.26834,-4.474476 0.94171,-6.756038 -0.32662,-2.281563 -1.28545,-4.46242 -2.70328,-6.279549 -2.18312,-2.797945 -5.40002,-4.683799 -8.81598,-5.645955 C 106.14528,63.854524 102.53127,63.767913 99,64.120994 c -6.66074,0.665987 -13.296987,2.974161 -18.320286,7.398577 -2.433916,2.143742 -4.51249,4.878925 -5.117292,8.065427 -0.302401,1.593251 -0.219131,3.272394 0.3431,4.793509 0.56223,1.521115 1.61707,2.873756 3.012625,3.699783 1.095216,0.648257 2.373156,0.961647 3.645711,0.980041 1.272555,0.01839 2.54009,-0.251035 3.729323,-0.704311 2.378465,-0.906553 4.413809,-2.51683 6.365182,-4.151174 0.964594,-0.807881 1.923935,-1.63126 2.995202,-2.291183 1.071268,-0.659923 2.270556,-1.155149 3.525942,-1.239514 1.255383,-0.08437 2.571923,0.277615 3.485803,1.142448 0.45694,0.432416 0.80508,0.983594 0.97472,1.5894 0.16964,0.605805 0.15687,1.265228 -0.06,1.855789 -0.30562,0.832388 -0.98303,1.473589 -1.70279,1.991491 -0.71975,0.517902 -1.50576,0.947243 -2.172656,1.531641 -0.957926,0.839423 -1.63057,1.97011 -2.061195,3.168782 -0.430624,1.198672 -0.630512,2.468259 -0.749753,3.736342 -0.238482,2.536166 -0.174032,5.153068 -1.064495,7.539718 -0.471911,1.26483 -1.196222,2.41667 -1.837819,3.60446 -0.641597,1.18779 -1.212228,2.44952 -1.332999,3.79411 z"
       id="path3"
       inkscape:path-effect="#path-effect3"
       inkscape:original-d="m 92.658363,110.62633 c -4.873988,4.85495 19.571207,-20.481705 19.377217,-1.40925 -0.0717,7.04981 2.23132,-4.93238 2.4662,-7.75089 0.23487,-2.818505 0.82206,-6.811387 1.05694,-10.21708 0.23487,-3.405696 2.93594,-5.049822 4.58007,-7.750889 1.64413,-2.701068 -1.40925,-8.690393 -1.76157,-13.035587 C 118.02491,66.117437 105.2242,64.473308 99,64.120994 c -6.2242,-0.352311 -11.039146,4.814948 -18.320286,7.398577 -7.281137,2.58363 4.150684,9.140122 -1.761567,16.558719 -7.922134,9.940568 10.569396,0 13.740216,-3.875444 3.170817,-3.875445 6.106758,2.466193 10.921707,1.05694 4.81494,-1.409253 -1.40925,0.587188 -3.875446,3.523132 -2.466192,2.935941 0.587186,9.042703 -3.875443,14.444842 -4.462634,5.40213 -0.993182,5.22944 -3.170818,7.39857 z"
       transform="matrix(1,0,0,0.91537587,5.9893239,11.399383)"
       sodipodi:nodetypes="ssssssssssssss" />
  </g>
</svg>
